<?xml version="1.0" encoding="UTF-8"?>
<svg xmlns="http://www.w3.org/2000/svg" xmlns:xlink="http://www.w3.org/1999/xlink" width="25px" height="25px" viewBox="0 0 25 24" version="1.1">
<g id="surface1">
<path style=" stroke:none;fill-rule:nonzero;fill:rgb(0%,0%,0%);fill-opacity:1;" d="M 11.804688 2.03125 C 10.707031 2.128906 10.058594 2.253906 9.214844 2.519531 C 8.308594 2.808594 7.324219 3.285156 6.542969 3.8125 C 5.59375 4.449219 4.683594 5.320312 4 6.234375 C 3.050781 7.511719 2.429688 9.023438 2.199219 10.59375 C 2.105469 11.242188 2.09375 11.535156 2.105469 12.738281 C 2.117188 13.953125 2.136719 14.167969 2.269531 14.847656 C 2.78125 17.398438 4.277344 19.632812 6.492188 21.15625 C 8.21875 22.339844 10.355469 22.992188 12.5 22.992188 C 14.644531 22.992188 16.773438 22.339844 18.507812 21.15625 C 20.738281 19.628906 22.25 17.359375 22.738281 14.789062 C 22.878906 14.054688 22.886719 13.917969 22.886719 12.527344 C 22.886719 11.160156 22.878906 10.988281 22.75 10.277344 C 22.46875 8.6875 21.730469 7.105469 20.679688 5.824219 C 20.320312 5.386719 19.722656 4.785156 19.289062 4.425781 C 17.875 3.261719 16.109375 2.457031 14.292969 2.160156 C 13.695312 2.058594 13.359375 2.035156 12.621094 2.027344 C 12.226562 2.023438 11.859375 2.023438 11.804688 2.03125 Z M 13.5625 6.070312 C 14.117188 6.152344 14.6875 6.296875 15.160156 6.472656 C 17.5 7.355469 19.1875 9.300781 19.664062 11.667969 C 19.761719 12.15625 19.789062 12.472656 19.753906 12.765625 C 19.660156 13.578125 19.410156 14.394531 19.019531 15.140625 C 18.902344 15.367188 18.605469 15.84375 18.582031 15.84375 C 18.574219 15.84375 16.441406 13.800781 13.84375 11.308594 C 9.441406 7.082031 9.121094 6.769531 9.164062 6.738281 C 9.226562 6.691406 9.746094 6.484375 10.042969 6.382812 C 10.503906 6.230469 11.113281 6.101562 11.695312 6.035156 C 12.117188 5.984375 13.117188 6.003906 13.5625 6.070312 Z M 11.019531 13.796875 L 15.699219 18.28125 L 15.554688 18.351562 C 15.066406 18.585938 14.316406 18.8125 13.671875 18.910156 C 10.898438 19.347656 8.136719 18.226562 6.511719 16 C 5.828125 15.066406 5.375 13.917969 5.246094 12.785156 C 5.179688 12.203125 5.386719 11.164062 5.734375 10.359375 C 5.902344 9.964844 6.28125 9.292969 6.324219 9.308594 C 6.335938 9.3125 8.445312 11.335938 11.019531 13.796875 Z M 11.019531 13.796875 "/>
</g>
</svg>
