<?xml version="1.0" encoding="UTF-8"?>
<svg xmlns="http://www.w3.org/2000/svg" xmlns:xlink="http://www.w3.org/1999/xlink" width="104px" height="104px" viewBox="0 0 104 104" version="1.1">
<g id="surface1">
<path style=" stroke:none;fill-rule:nonzero;fill:rgb(0%,0%,0%);fill-opacity:1;" d="M 36.5625 4.082031 C 31.851562 5.300781 27.929688 8.53125 25.878906 12.898438 C 24.800781 15.195312 24.335938 17.226562 24.335938 19.703125 C 24.335938 22.078125 24.640625 23.828125 25.410156 25.757812 C 26.648438 28.882812 27.15625 29.453125 39.570312 41.882812 C 50.578125 52.914062 51.328125 53.625 52 53.625 C 52.648438 53.625 53.402344 52.914062 64.046875 42.289062 C 70.28125 36.074219 75.828125 30.386719 76.394531 29.65625 C 79.382812 25.695312 80.398438 20.699219 79.21875 15.742188 C 78.8125 14.078125 77.328125 11.171875 76.132812 9.667969 C 73.042969 5.828125 68.492188 3.65625 63.597656 3.65625 C 59.394531 3.675781 55.820312 4.957031 52.996094 7.476562 L 52 8.367188 L 51.003906 7.476562 C 49.136719 5.808594 46.496094 4.507812 43.914062 3.960938 C 41.925781 3.535156 38.429688 3.59375 36.5625 4.082031 Z M 43.652344 7.210938 C 45.640625 7.699219 47.875 8.957031 49.726562 10.683594 C 51.878906 12.675781 52.121094 12.675781 54.132812 10.804688 C 56.976562 8.164062 59.394531 7.109375 62.867188 6.96875 C 65.46875 6.84375 67.132812 7.171875 69.144531 8.144531 C 74.769531 10.886719 77.632812 17.226562 75.96875 23.277344 C 75.09375 26.527344 75.117188 26.507812 63.050781 38.59375 L 52 49.664062 L 40.949219 38.59375 C 32.640625 30.265625 29.757812 27.238281 29.269531 26.367188 C 25.613281 19.824219 27.96875 11.761719 34.550781 8.328125 C 35.40625 7.882812 36.644531 7.394531 37.3125 7.230469 C 38.878906 6.84375 42.046875 6.84375 43.652344 7.210938 Z M 43.652344 7.210938 "/>
<path style=" stroke:none;fill-rule:nonzero;fill:rgb(0%,0%,0%);fill-opacity:1;" d="M 47.632812 15.132812 C 47.144531 15.601562 47.125 15.722656 47.125 18.382812 L 47.125 21.125 L 44.382812 21.125 C 41.722656 21.125 41.601562 21.144531 41.132812 21.632812 C 40.625 22.121094 40.625 22.160156 40.625 26 C 40.625 29.839844 40.625 29.878906 41.132812 30.367188 C 41.601562 30.855469 41.722656 30.875 44.382812 30.875 L 47.125 30.875 L 47.125 33.617188 C 47.125 36.277344 47.144531 36.398438 47.632812 36.867188 C 48.121094 37.375 48.160156 37.375 52 37.375 C 55.839844 37.375 55.878906 37.375 56.367188 36.867188 C 56.855469 36.398438 56.875 36.277344 56.875 33.617188 L 56.875 30.875 L 59.617188 30.875 C 62.277344 30.875 62.398438 30.855469 62.867188 30.367188 C 63.375 29.878906 63.375 29.839844 63.375 26 C 63.375 22.160156 63.375 22.121094 62.867188 21.632812 C 62.398438 21.144531 62.277344 21.125 59.617188 21.125 L 56.875 21.125 L 56.875 18.382812 C 56.875 15.722656 56.855469 15.601562 56.367188 15.132812 C 55.878906 14.625 55.839844 14.625 52 14.625 C 48.160156 14.625 48.121094 14.625 47.632812 15.132812 Z M 53.625 20.617188 C 53.625 23.277344 53.644531 23.398438 54.132812 23.867188 C 54.601562 24.355469 54.722656 24.375 57.382812 24.375 L 60.125 24.375 L 60.125 27.625 L 57.382812 27.625 C 54.722656 27.625 54.601562 27.644531 54.132812 28.132812 C 53.644531 28.601562 53.625 28.722656 53.625 31.382812 L 53.625 34.125 L 50.375 34.125 L 50.375 31.382812 C 50.375 28.722656 50.355469 28.601562 49.867188 28.132812 C 49.398438 27.644531 49.277344 27.625 46.617188 27.625 L 43.875 27.625 L 43.875 24.375 L 46.617188 24.375 C 49.277344 24.375 49.398438 24.355469 49.867188 23.867188 C 50.355469 23.398438 50.375 23.277344 50.375 20.617188 L 50.375 17.875 L 53.625 17.875 Z M 53.625 20.617188 "/>
<path style=" stroke:none;fill-rule:nonzero;fill:rgb(0%,0%,0%);fill-opacity:1;" d="M 11.355469 22.8125 C 8.773438 23.785156 7.191406 25.835938 6.96875 28.519531 C 6.867188 29.695312 6.804688 29.796875 5.871094 30.632812 C 4.570312 31.789062 3.839844 33.332031 3.71875 35.101562 C 3.636719 36.359375 3.921875 37.496094 7.414062 50.457031 C 10.054688 60.308594 11.355469 64.777344 11.742188 65.488281 C 12.1875 66.28125 13.8125 67.84375 18.667969 72.210938 C 22.953125 76.03125 25.167969 78.164062 25.453125 78.710938 C 25.796875 79.382812 25.898438 79.96875 25.960938 82 C 26.039062 84.214844 26 84.5 25.714844 84.5 C 25.53125 84.5 25.148438 84.722656 24.882812 85.007812 L 24.375 85.496094 L 24.375 99.753906 L 24.882812 100.242188 L 25.371094 100.75 L 49.378906 100.75 L 49.867188 100.242188 L 50.375 99.753906 L 50.375 85.496094 L 49.867188 85.007812 C 49.601562 84.722656 49.238281 84.5 49.074219 84.5 C 48.8125 84.5 48.769531 83.28125 48.710938 75.5 C 48.628906 66.765625 48.628906 66.484375 48.160156 65.101562 C 47.1875 62.117188 45.335938 59.414062 43.164062 57.726562 C 42.25 57.015625 28.539062 48.871094 27.359375 48.324219 C 26.933594 48.140625 26.425781 46.800781 23.277344 37.71875 C 21.308594 31.992188 19.5 26.875 19.257812 26.324219 C 18.242188 24.132812 16.128906 22.730469 13.609375 22.609375 C 12.65625 22.566406 11.800781 22.648438 11.355469 22.8125 Z M 14.828125 26.203125 C 15.253906 26.425781 15.78125 26.851562 16.007812 27.15625 C 16.210938 27.484375 17.855469 31.972656 19.640625 37.171875 C 21.449219 42.371094 22.972656 46.757812 23.054688 46.960938 C 23.15625 47.226562 22.972656 47.347656 22.121094 47.613281 C 21.53125 47.773438 21.023438 47.898438 21.003906 47.875 C 20.984375 47.855469 19.886719 44.546875 18.585938 40.542969 C 17.285156 36.542969 16.066406 32.925781 15.84375 32.519531 C 15.011719 30.894531 12.859375 29.351562 11.050781 29.109375 C 10.136719 28.984375 10.117188 28.964844 10.238281 28.355469 C 10.5 27.015625 11.921875 25.796875 13.242188 25.796875 C 13.671875 25.796875 14.382812 25.980469 14.828125 26.203125 Z M 11.578125 32.703125 C 12.003906 32.925781 12.53125 33.351562 12.757812 33.65625 C 12.960938 33.984375 14.320312 37.863281 15.742188 42.289062 L 18.34375 50.355469 L 17.875 51.410156 C 17.488281 52.324219 17.429688 52.75 17.507812 54.132812 C 17.609375 56.042969 18.28125 57.503906 19.519531 58.582031 C 20.617188 59.515625 30.285156 65 30.835938 65 C 31.097656 65 31.523438 64.777344 31.789062 64.492188 C 32.4375 63.863281 32.460938 62.90625 31.851562 62.296875 C 31.585938 62.054688 29.332031 60.652344 26.8125 59.230469 C 24.292969 57.789062 22.019531 56.40625 21.773438 56.183594 C 20.960938 55.472656 20.65625 54.679688 20.757812 53.523438 C 20.921875 51.613281 22.28125 50.4375 24.152344 50.617188 C 24.921875 50.699219 26.46875 51.511719 32.90625 55.269531 C 41.679688 60.390625 42.695312 61.160156 44.117188 63.902344 C 45.4375 66.402344 45.5 66.949219 45.5 76.210938 L 45.5 84.5 L 29.289062 84.5 L 29.210938 81.796875 C 29.085938 78.648438 28.742188 77.492188 27.382812 75.828125 C 26.894531 75.238281 24.355469 72.882812 21.734375 70.566406 C 15.539062 65.121094 14.847656 64.453125 14.421875 63.476562 C 14.21875 63.03125 12.429688 56.632812 10.460938 49.257812 C 6.640625 35.058594 6.621094 34.898438 7.476562 33.738281 C 8.511719 32.335938 10.074219 31.929688 11.578125 32.703125 Z M 47.125 92.625 L 47.125 97.5 L 27.625 97.5 L 27.625 87.75 L 47.125 87.75 Z M 47.125 92.625 "/>
<path style=" stroke:none;fill-rule:nonzero;fill:rgb(0%,0%,0%);fill-opacity:1;" d="M 88.5625 22.871094 C 87.34375 23.320312 86.0625 24.273438 85.394531 25.207031 C 84.785156 26.101562 84.398438 27.117188 80.234375 39.101562 L 77.125 48.039062 L 71.722656 51.1875 C 63.3125 56.0625 61.628906 57.097656 60.511719 58.011719 C 58.417969 59.71875 56.792969 62.175781 55.839844 65.101562 C 55.371094 66.484375 55.371094 66.746094 55.289062 75.5 C 55.230469 83.300781 55.1875 84.5 54.925781 84.5 C 54.761719 84.5 54.398438 84.722656 54.132812 85.007812 L 53.625 85.496094 L 53.625 99.753906 L 54.132812 100.242188 L 54.621094 100.75 L 78.628906 100.75 L 79.117188 100.242188 L 79.625 99.753906 L 79.625 85.496094 L 79.117188 85.007812 C 78.851562 84.722656 78.46875 84.5 78.285156 84.5 C 78 84.5 77.960938 84.214844 78.039062 82 C 78.101562 79.949219 78.183594 79.382812 78.546875 78.691406 C 78.851562 78.121094 80.90625 76.152344 85.171875 72.351562 C 91.265625 66.929688 91.8125 66.382812 92.503906 65.039062 C 92.707031 64.65625 94.515625 58.214844 96.523438 50.71875 C 99.816406 38.574219 100.222656 36.886719 100.222656 35.445312 C 100.242188 34.0625 100.160156 33.65625 99.671875 32.664062 C 99.347656 31.992188 98.679688 31.117188 98.128906 30.632812 C 97.195312 29.796875 97.132812 29.695312 97.03125 28.476562 C 96.828125 26.164062 95.507812 24.234375 93.398438 23.136719 C 92.238281 22.527344 89.84375 22.40625 88.5625 22.871094 Z M 92.21875 26.242188 C 93.070312 26.832031 93.601562 27.5625 93.761719 28.355469 C 93.882812 28.964844 93.863281 28.984375 92.949219 29.109375 C 91.0625 29.371094 89.007812 30.8125 88.175781 32.480469 C 87.953125 32.90625 86.714844 36.542969 85.414062 40.542969 C 84.113281 44.546875 83.015625 47.855469 82.996094 47.875 C 82.976562 47.898438 82.46875 47.773438 81.878906 47.613281 C 81.027344 47.347656 80.84375 47.226562 80.945312 46.960938 C 81.027344 46.757812 82.550781 42.414062 84.316406 37.273438 C 86.105469 32.132812 87.730469 27.664062 87.933594 27.320312 C 88.746094 25.917969 90.9375 25.371094 92.21875 26.242188 Z M 95.46875 32.742188 C 96.402344 33.394531 96.910156 34.125 97.03125 35.058594 C 97.113281 35.667969 96.320312 38.835938 93.640625 48.851562 C 91.730469 56 90.023438 62.296875 89.84375 62.847656 C 89.414062 64.1875 88.847656 64.757812 82.40625 70.464844 C 79.179688 73.328125 76.597656 75.765625 76.210938 76.335938 C 75.136719 77.917969 74.75 79.484375 74.75 82.183594 L 74.75 84.5 L 58.5 84.5 L 58.5 76.210938 C 58.5 66.949219 58.5625 66.402344 59.859375 63.902344 C 61.261719 61.203125 62.320312 60.390625 71.113281 55.269531 C 79.625 50.292969 79.96875 50.152344 81.535156 50.882812 C 83.523438 51.835938 83.890625 54.703125 82.226562 56.183594 C 81.980469 56.40625 79.707031 57.789062 77.1875 59.230469 C 74.667969 60.671875 72.414062 62.054688 72.171875 62.296875 C 71.539062 62.90625 71.5625 63.863281 72.210938 64.492188 C 72.476562 64.777344 72.902344 65 73.164062 65 C 73.917969 65 83.625 59.351562 84.722656 58.277344 C 86.042969 56.976562 86.59375 55.453125 86.46875 53.421875 C 86.429688 52.527344 86.226562 51.574219 86.023438 51.125 L 85.636719 50.375 L 88.15625 42.59375 C 89.515625 38.328125 90.835938 34.46875 91.082031 34.023438 C 91.914062 32.4375 94.085938 31.808594 95.46875 32.742188 Z M 76.375 92.625 L 76.375 97.5 L 56.875 97.5 L 56.875 87.75 L 76.375 87.75 Z M 76.375 92.625 "/>
</g>
</svg>
